<svg id="fe1d4a26-9504-489a-8a40-7774402e19eb" data-name="Layer 1" xmlns="http://www.w3.org/2000/svg" viewBox="0 0 144.96 156.14"><title>home</title><path d="M282.33,229.78H265.89a16.22,16.22,0,0,1-16.2-16.2V192.44a4.22,4.22,0,0,0-4.17-4.21L221.83,188a4.17,4.17,0,0,0-4.25,4.16l-.28,21.64a16.26,16.26,0,0,1-16.2,16H186.7c-7.12,0-12.87-2.17-17.09-6.44-4.71-4.77-7.24-12.12-7.12-20.68l-.3-67.35a16.31,16.31,0,0,1,6.59-12.9l54-44.36a22.55,22.55,0,0,1,26.39-.28l51.37,42.54a16.05,16.05,0,0,1,6.58,13v70.12C307.15,215.6,300.65,229.78,282.33,229.78Zm-60.54-50.85h.13l23.69.24a13.31,13.31,0,0,1,13.14,13.27v21.14a7.14,7.14,0,0,0,7.14,7.14h16.44c14.23,0,15.76-12.07,15.76-17.26V133.34a7.15,7.15,0,0,0-3-5.84L243.7,85a13.42,13.42,0,0,0-15.43.32l-53.93,44.28a7.29,7.29,0,0,0-3.09,5.79l.3,67.35c-.05,3.63.47,10.19,4.51,14.28,2.48,2.52,6,3.74,10.64,3.74h14.4a7.16,7.16,0,0,0,7.14-7l.28-21.65A13.3,13.3,0,0,1,221.79,178.93Z" transform="translate(-162.19 -73.64)" style="fill:lime"/></svg>