<svg id="fbbf69f0-fd33-41de-8397-34729b4d9b6c" data-name="Layer 1" xmlns="http://www.w3.org/2000/svg" viewBox="0 0 1000 844.76"><title>nasa</title><path d="M-664.72,769.66c233.27,0,422.38-189.11,422.38-422.38S-431.45-75.09-664.72-75.09-1087.1,114-1087.1,347.28-898,769.66-664.72,769.66Z" transform="translate(1124.3 75.09)" style="fill:#1e3e89;fill-rule:evenodd"/><path d="M-667.67,505.85c-8.73-1.94-32.8-25.2-32.8-25.2l-7.76,7.27s17.94,20.85,28.61,35.39Z" transform="translate(1124.3 75.09)" style="fill:#fff;fill-rule:evenodd"/><path d="M-783.45,591.35a5,5,0,0,0,5-5,5,5,0,0,0-5-5,5,5,0,0,0-5,5,5,5,0,0,0,5,5Z" transform="translate(1124.3 75.09)" style="fill:#fff;fill-rule:evenodd"/><path d="M-778.84,630.27a3.76,3.76,0,0,0,3.76-3.77,3.76,3.76,0,0,0-3.76-3.77,3.77,3.77,0,0,0-3.78,3.77,3.77,3.77,0,0,0,3.78,3.77Z" transform="translate(1124.3 75.09)" style="fill:#fff;fill-rule:evenodd"/><path d="M-603.94,593.32a3.42,3.42,0,0,0,3.43-3.43,3.42,3.42,0,0,0-3.43-3.42,3.43,3.43,0,0,0-3.43,3.42,3.43,3.43,0,0,0,3.43,3.43Z" transform="translate(1124.3 75.09)" style="fill:#fff;fill-rule:evenodd"/><path d="M-485.51,521a2.4,2.4,0,0,0,2.4-2.4,2.41,2.41,0,0,0-2.4-2.4,2.4,2.4,0,0,0-2.4,2.4,2.39,2.39,0,0,0,2.4,2.4Z" transform="translate(1124.3 75.09)" style="fill:#fff;fill-rule:evenodd"/><path d="M-482.12,568.05a2.39,2.39,0,0,0,2.4-2.4,2.4,2.4,0,0,0-2.4-2.4,2.4,2.4,0,0,0-2.4,2.4,2.39,2.39,0,0,0,2.4,2.4Z" transform="translate(1124.3 75.09)" style="fill:#fff;fill-rule:evenodd"/><path d="M-459.94,657a5,5,0,0,0,5-5,5,5,0,0,0-5-5,5,5,0,0,0-5,5,5,5,0,0,0,5,5Z" transform="translate(1124.3 75.09)" style="fill:#fff;fill-rule:evenodd"/><path d="M-455.09,501.22a5.15,5.15,0,0,0,5.14-5.15,5.14,5.14,0,0,0-5.14-5.14,5.14,5.14,0,0,0-5.14,5.14,5.15,5.15,0,0,0,5.14,5.15Z" transform="translate(1124.3 75.09)" style="fill:#fff;fill-rule:evenodd"/><path d="M-453.64,530a2.58,2.58,0,0,0,2.58-2.57,2.57,2.57,0,0,0-2.58-2.57,2.57,2.57,0,0,0-2.57,2.57,2.58,2.58,0,0,0,2.57,2.57Z" transform="translate(1124.3 75.09)" style="fill:#fff;fill-rule:evenodd"/><path d="M-405.52,475.25a2.58,2.58,0,0,0,2.58-2.57,2.58,2.58,0,0,0-2.58-2.57,2.57,2.57,0,0,0-2.56,2.57,2.57,2.57,0,0,0,2.56,2.57Z" transform="translate(1124.3 75.09)" style="fill:#fff;fill-rule:evenodd"/><path d="M-358.48,529.15a3.26,3.26,0,0,0,3.26-3.26,3.25,3.25,0,0,0-3.26-3.25,3.25,3.25,0,0,0-3.26,3.25,3.26,3.26,0,0,0,3.26,3.26Z" transform="translate(1124.3 75.09)" style="fill:#fff;fill-rule:evenodd"/><path d="M-337.35,519.15a4.29,4.29,0,0,0,4.29-4.29,4.28,4.28,0,0,0-4.29-4.28,4.28,4.28,0,0,0-4.28,4.28,4.29,4.29,0,0,0,4.28,4.29Z" transform="translate(1124.3 75.09)" style="fill:#fff;fill-rule:evenodd"/><path d="M-397.75,564.31a4.11,4.11,0,0,0,4.11-4.12,4.12,4.12,0,0,0-4.11-4.11,4.12,4.12,0,0,0-4.12,4.11,4.11,4.11,0,0,0,4.12,4.12Z" transform="translate(1124.3 75.09)" style="fill:#fff;fill-rule:evenodd"/><path d="M-354.48,584a2.22,2.22,0,0,0,2.22-2.23,2.22,2.22,0,0,0-2.22-2.23,2.23,2.23,0,0,0-2.23,2.23,2.23,2.23,0,0,0,2.23,2.23Z" transform="translate(1124.3 75.09)" style="fill:#fff;fill-rule:evenodd"/><path d="M-629.39,32.73a5.14,5.14,0,0,0,5.14-5.14,5.14,5.14,0,0,0-5.14-5.14,5.14,5.14,0,0,0-5.14,5.14,5.14,5.14,0,0,0,5.14,5.14Z" transform="translate(1124.3 75.09)" style="fill:#fff;fill-rule:evenodd"/><path d="M-649.75-21a2.91,2.91,0,0,0,2.91-2.91,2.91,2.91,0,0,0-2.91-2.92,2.92,2.92,0,0,0-2.92,2.92A2.91,2.91,0,0,0-649.75-21Z" transform="translate(1124.3 75.09)" style="fill:#fff;fill-rule:evenodd"/><path d="M-654.73,45.43A1.72,1.72,0,0,0-653,43.71,1.72,1.72,0,0,0-654.73,42a1.72,1.72,0,0,0-1.71,1.71,1.72,1.72,0,0,0,1.71,1.72Z" transform="translate(1124.3 75.09)" style="fill:#fff;fill-rule:evenodd"/><path d="M-735.09,53.3a3.77,3.77,0,0,0,3.77-3.77,3.77,3.77,0,0,0-3.77-3.77,3.77,3.77,0,0,0-3.77,3.77,3.77,3.77,0,0,0,3.77,3.77Z" transform="translate(1124.3 75.09)" style="fill:#fff;fill-rule:evenodd"/><path d="M-742,44.58a1.72,1.72,0,0,0,1.72-1.72A1.72,1.72,0,0,0-742,41.15a1.71,1.71,0,0,0-1.71,1.71A1.71,1.71,0,0,0-742,44.58Z" transform="translate(1124.3 75.09)" style="fill:#fff;fill-rule:evenodd"/><path d="M-575.21,121.61a3.6,3.6,0,0,0,3.6-3.59,3.6,3.6,0,0,0-3.6-3.6,3.6,3.6,0,0,0-3.6,3.6,3.6,3.6,0,0,0,3.6,3.59Z" transform="translate(1124.3 75.09)" style="fill:#fff;fill-rule:evenodd"/><path d="M-531.33,332.2s63.53,19.51,42.18,74.18c0,0-27.63,55.76-109.57,28.6l-16.73,15-.61-53,23.88,18.06s54.79,14.92,55.76-16.48c0,0-2.79-11.63-44.85-24.49,0,0-49-15-37.82-58.18,0,0,7.76-67.14,105-40l17-9.21-.24,51.39s-14.68-16.79-21-20.6c-10.89-6.6-43.88-14.18-50.42,7.15-7.14,23.25,21.45,21.7,37.45,27.52Z" transform="translate(1124.3 75.09)" style="fill:#fff;fill-rule:evenodd"/><polygon points="688.24 347.78 761.45 347.78 820.61 490.2 840 509.11 740.12 509.11 756.12 493.11 747.88 471.78 694.06 471.78 687.76 494.08 698.91 509.11 651.39 509.11 667.64 492.87 706.91 367.78 688.24 347.78 688.24 347.78" style="fill:#fff;fill-rule:evenodd"/><polygon points="740.6 449.48 717.82 394.2 700.36 449.48 740.6 449.48 740.6 449.48" style="fill:#312783;fill-rule:evenodd"/><path d="M-677.09,21.53a5.16,5.16,0,0,0,5.15-5.15,5.15,5.15,0,0,0-5.15-5.14,5.14,5.14,0,0,0-5.14,5.14,5.15,5.15,0,0,0,5.14,5.15Z" transform="translate(1124.3 75.09)" style="fill:#fff;fill-rule:evenodd"/><path d="M-808.6,135.74a3.61,3.61,0,0,0,3.6-3.6,3.6,3.6,0,0,0-3.6-3.6,3.6,3.6,0,0,0-3.6,3.6,3.6,3.6,0,0,0,3.6,3.6Z" transform="translate(1124.3 75.09)" style="fill:#fff;fill-rule:evenodd"/><path d="M-797.69,153.92a3.6,3.6,0,0,0,3.6-3.6,3.6,3.6,0,0,0-3.6-3.6,3.59,3.59,0,0,0-3.6,3.6,3.59,3.59,0,0,0,3.6,3.6Z" transform="translate(1124.3 75.09)" style="fill:#fff;fill-rule:evenodd"/><path d="M-766.18,195.07a1.72,1.72,0,0,0,1.72-1.72,1.72,1.72,0,0,0-1.72-1.71,1.72,1.72,0,0,0-1.71,1.71,1.72,1.72,0,0,0,1.71,1.72Z" transform="translate(1124.3 75.09)" style="fill:#fff;fill-rule:evenodd"/><path d="M-726.18,56.28a1.72,1.72,0,0,0,1.72-1.72,1.72,1.72,0,0,0-1.72-1.71,1.72,1.72,0,0,0-1.71,1.71,1.72,1.72,0,0,0,1.71,1.72Z" transform="translate(1124.3 75.09)" style="fill:#fff;fill-rule:evenodd"/><path d="M-731,76.87A2.91,2.91,0,0,0-728.11,74,2.91,2.91,0,0,0-731,71,2.92,2.92,0,0,0-733.94,74,2.91,2.91,0,0,0-731,76.87Z" transform="translate(1124.3 75.09)" style="fill:#fff;fill-rule:evenodd"/><path d="M-670.42,56.27a2.91,2.91,0,0,0,2.91-2.92,2.91,2.91,0,0,0-2.91-2.91,2.91,2.91,0,0,0-2.92,2.91,2.92,2.92,0,0,0,2.92,2.92Z" transform="translate(1124.3 75.09)" style="fill:#fff;fill-rule:evenodd"/><path d="M-633.45,78.08a2.91,2.91,0,0,0,2.91-2.91,2.91,2.91,0,0,0-2.91-2.92,2.92,2.92,0,0,0-2.92,2.92,2.91,2.91,0,0,0,2.92,2.91Z" transform="translate(1124.3 75.09)" style="fill:#fff;fill-rule:evenodd"/><path d="M-385.51,588.85a6.41,6.41,0,0,0,6.41-6.41,6.41,6.41,0,0,0-6.41-6.41,6.41,6.41,0,0,0-6.41,6.41,6.41,6.41,0,0,0,6.41,6.41Z" transform="translate(1124.3 75.09)" style="fill:#fff;fill-rule:evenodd"/><polygon points="734.97 652.26 738.85 641.35 742.36 652.14 734.97 652.26 734.97 652.26" style="fill:#fff;fill-rule:evenodd"/><polygon points="734.97 662.38 738.85 673.29 742.36 662.5 734.97 662.38 734.97 662.38" style="fill:#fff;fill-rule:evenodd"/><polygon points="733.57 661.48 722.67 657.6 733.45 654.08 733.57 661.48 733.57 661.48" style="fill:#fff;fill-rule:evenodd"/><polygon points="743.88 661.48 754.79 657.6 744 654.08 743.88 661.48 743.88 661.48" style="fill:#fff;fill-rule:evenodd"/><path d="M-397.09,499.89a4.12,4.12,0,0,0,4.11-4.12,4.11,4.11,0,0,0-4.11-4.11,4.11,4.11,0,0,0-4.11,4.11,4.12,4.12,0,0,0,4.11,4.12Z" transform="translate(1124.3 75.09)" style="fill:#fff;fill-rule:evenodd"/><path d="M-529.81,667.77a4.12,4.12,0,0,0,4.11-4.12,4.11,4.11,0,0,0-4.11-4.11,4.11,4.11,0,0,0-4.12,4.11,4.12,4.12,0,0,0,4.12,4.12Z" transform="translate(1124.3 75.09)" style="fill:#fff;fill-rule:evenodd"/><path d="M-682.54,622.92a4.12,4.12,0,0,0,4.11-4.12,4.11,4.11,0,0,0-4.11-4.11,4.12,4.12,0,0,0-4.12,4.11,4.13,4.13,0,0,0,4.12,4.12Z" transform="translate(1124.3 75.09)" style="fill:#fff;fill-rule:evenodd"/><path d="M-826.17,624.13a4.12,4.12,0,0,0,4.11-4.12,4.12,4.12,0,0,0-4.11-4.11,4.11,4.11,0,0,0-4.12,4.11,4.11,4.11,0,0,0,4.12,4.12Z" transform="translate(1124.3 75.09)" style="fill:#fff;fill-rule:evenodd"/><path d="M-809.81,530a2.74,2.74,0,0,0,2.74-2.74,2.74,2.74,0,0,0-2.74-2.74,2.75,2.75,0,0,0-2.75,2.74,2.75,2.75,0,0,0,2.75,2.74Z" transform="translate(1124.3 75.09)" style="fill:#fff;fill-rule:evenodd"/><path d="M-858.9,564a2.74,2.74,0,0,0,2.74-2.74,2.75,2.75,0,0,0-2.74-2.75,2.75,2.75,0,0,0-2.75,2.75A2.75,2.75,0,0,0-858.9,564Z" transform="translate(1124.3 75.09)" style="fill:#fff;fill-rule:evenodd"/><path d="M-799.51,451.85a2.74,2.74,0,0,0,2.74-2.74,2.75,2.75,0,0,0-2.74-2.75,2.75,2.75,0,0,0-2.74,2.75,2.74,2.74,0,0,0,2.74,2.74Z" transform="translate(1124.3 75.09)" style="fill:#fff;fill-rule:evenodd"/><path d="M-969.21,531.25a2.75,2.75,0,0,0,2.75-2.75,2.75,2.75,0,0,0-2.75-2.75,2.75,2.75,0,0,0-2.74,2.75,2.75,2.75,0,0,0,2.74,2.75Z" transform="translate(1124.3 75.09)" style="fill:#fff;fill-rule:evenodd"/><path d="M-923.75,535.49a2.75,2.75,0,0,0,2.74-2.75,2.74,2.74,0,0,0-2.74-2.74,2.75,2.75,0,0,0-2.75,2.74,2.75,2.75,0,0,0,2.75,2.75Z" transform="translate(1124.3 75.09)" style="fill:#fff;fill-rule:evenodd"/><path d="M-932.24,557.72a5,5,0,0,0,5-5,5,5,0,0,0-5-5,5,5,0,0,0-5,5,5,5,0,0,0,5,5Z" transform="translate(1124.3 75.09)" style="fill:#fff;fill-rule:evenodd"/><path d="M-916.48,576.5a5,5,0,0,0,5-5,5,5,0,0,0-5-5,5,5,0,0,0-5,5,5,5,0,0,0,5,5Z" transform="translate(1124.3 75.09)" style="fill:#fff;fill-rule:evenodd"/><path d="M-284.91,110.25c76-62.66,138.6-116.6,160.61-157.45,0,0-48.24,161.46-273.69,330.18,0,0-344.25,234.92-438.31,300.85,0,0-86.79,61.33-160.48,156.36l-1.7-15.51s55.18-81.21,180.85-169.94C-707.09,476.69-665.87,450.5-665.87,450.5S-403.3,286.16-349,214.62c0,0-188.36,108.12-513.21,170.91,0,0-150.3,37.82-248.48,99.15h-13.58s85.7-72.84,284.48-129.34c0,0,336.37-99.87,554.91-245.09Z" transform="translate(1124.3 75.09)" style="fill:#e94f33;fill-rule:evenodd"/><polygon points="113.21 348.38 181.09 348.38 239.27 446.32 239.27 360.5 228.61 348.38 271.27 348.38 260.61 364.87 260.61 492.38 276.12 509.35 208.24 509.35 150.18 408.87 150.18 492.99 162.67 509.59 111.27 509.59 125.82 491.89 125.82 367.77 113.21 348.38 113.21 348.38" style="fill:#fff;fill-rule:evenodd"/><polygon points="339.39 348.14 414.43 348.14 468.12 490.56 487.51 509.47 391.27 509.47 407.27 493.47 399.03 472.14 345.21 472.14 341.94 494.44 353.09 509.47 302.55 509.47 320.6 493.23 358.06 368.14 339.39 348.14 339.39 348.14" style="fill:#fff;fill-rule:evenodd"/><polygon points="391.76 449.83 368.97 394.56 351.52 449.83 391.76 449.83 391.76 449.83" style="fill:#312783;fill-rule:evenodd"/><polygon points="366.3 403.9 372.06 401.78 384.79 432.99 354.48 440.57 366.3 403.9 366.3 403.9" style="fill:#e30613;fill-rule:evenodd"/><path d="M-618.86,340.53S-636.18,296.74-589,271.1c16.51-9,29.83-13.81,80.74,5.58l11.15-9.94v51.39s-23.27-24.48-40.24-26.9-33.94,2.42-31.52,26.66l-48.48,21.82Z" transform="translate(1124.3 75.09)" style="fill:#fff;fill-rule:evenodd"/><path d="M-573.83,226" transform="translate(1124.3 75.09)" style="fill:#fff"/><path d="M-583.27,224" transform="translate(1124.3 75.09)" style="fill:#fff"/><path d="M-580.54,217.93C-608.61,184.09-677.88,121.61-729,97.26-775.63,75-811.11,75.71-836.67,91.83c-22.11,14-30.49,54.34-15.61,116.27C-839.71,260.4-810.52,327.67-759,407l-.08-.13c.13.18,48.91,65.76,54.08,69.64l-7.68,5.21c-6-4.48-51.17-71.11-51.3-71.3l-.09-.13c-52-80-81.41-147.93-94.12-200.81-15.55-64.74-6-107.47,18.29-122.78,27.28-17.21,64.62-17.78,113.59,5.12,52.58,24.59,107.66,72.62,150.56,119,82.56,89.33,187.77,328.3,125.48,387.7a58.82,58.82,0,0,1-5.28,4.48c-14,10.53-32.68,13.93-54.13,11-21.82-3-44.55-11.53-71.07-28.3-.79-.5-2.15-1.92-1.36-2.84,1.06-1.23,3,.38,3.72.8,0,0,34.24,23.53,64.66,26.84,20.13,2.19,38.68-1.33,52.65-11.6,8.85-6.5,57.55-51.08-26.84-233.17C-539,260.73-580.54,217.93-580.54,217.93Z" transform="translate(1124.3 75.09)" style="fill:#fff"/><path d="M-678,527.06c11.79,10.11,24.74,14.34,28.93,9.45s-2-17-13.75-27.15-24.75-14.33-28.94-9.44,2,17,13.76,27.14Z" transform="translate(1124.3 75.09)" style="fill:#fff;fill-rule:evenodd"/><path d="M-567.32,34.36a8,8,0,0,0,8-8,8,8,0,0,0-8-8,8,8,0,0,0-8,8,8,8,0,0,0,8,8Z" transform="translate(1124.3 75.09)" style="fill:#fff;fill-rule:evenodd"/><polygon points="552.21 94.85 557.06 66.67 561.45 94.7 552.21 94.85 552.21 94.85" style="fill:#fff;fill-rule:evenodd"/><polygon points="552.21 107.5 557.06 135.68 561.45 107.65 552.21 107.5 552.21 107.5" style="fill:#fff;fill-rule:evenodd"/><polygon points="550.47 106.36 521.08 101.52 550.32 97.12 550.47 106.36 550.47 106.36" style="fill:#fff;fill-rule:evenodd"/><polygon points="563.35 106.36 593.95 101.52 563.5 97.12 563.35 106.36 563.35 106.36" style="fill:#fff;fill-rule:evenodd"/><path d="M-764.06,147.65a8,8,0,0,0,8-8,8,8,0,0,0-8-8,8,8,0,0,0-8,8,8,8,0,0,0,8,8Z" transform="translate(1124.3 75.09)" style="fill:#fff;fill-rule:evenodd"/><polygon points="355.47 208.14 360.32 179.96 364.71 207.99 355.47 208.14 355.47 208.14" style="fill:#fff;fill-rule:evenodd"/><polygon points="355.47 220.79 360.32 248.97 364.71 220.95 355.47 220.79 355.47 220.79" style="fill:#fff;fill-rule:evenodd"/><polygon points="353.73 219.66 324.33 214.81 353.57 210.42 353.73 219.66 353.73 219.66" style="fill:#fff;fill-rule:evenodd"/><polygon points="366.61 219.66 397.21 214.81 366.76 210.42 366.61 219.66 366.61 219.66" style="fill:#fff;fill-rule:evenodd"/><path d="M-808.53,680.42a8,8,0,0,0,8-8,8,8,0,0,0-8-8,8,8,0,0,0-8,8,8,8,0,0,0,8,8Z" transform="translate(1124.3 75.09)" style="fill:#fff;fill-rule:evenodd"/><polygon points="311 740.91 315.85 712.73 320.24 740.75 311 740.91 311 740.91" style="fill:#fff;fill-rule:evenodd"/><polygon points="311 753.56 315.85 781.74 320.24 753.71 311 753.56 311 753.56" style="fill:#fff;fill-rule:evenodd"/><polygon points="309.26 752.42 279.86 747.57 309.11 743.18 309.26 752.42 309.26 752.42" style="fill:#fff;fill-rule:evenodd"/><polygon points="322.13 752.42 352.74 747.57 322.29 743.18 322.13 752.42 322.13 752.42" style="fill:#fff;fill-rule:evenodd"/><path d="M-346.71,498.6a8,8,0,0,0,8-8,8,8,0,0,0-8-8,8,8,0,0,0-8,8,8,8,0,0,0,8,8Z" transform="translate(1124.3 75.09)" style="fill:#fff;fill-rule:evenodd"/><polygon points="772.82 559.09 777.66 530.91 782.06 558.94 772.82 559.09 772.82 559.09" style="fill:#fff;fill-rule:evenodd"/><polygon points="772.82 571.74 777.66 599.92 782.06 571.89 772.82 571.74 772.82 571.74" style="fill:#fff;fill-rule:evenodd"/><polygon points="771.08 570.6 741.68 565.76 770.92 561.36 771.08 570.6 771.08 570.6" style="fill:#fff;fill-rule:evenodd"/><polygon points="783.96 570.6 814.56 565.76 784.1 561.36 783.96 570.6 783.96 570.6" style="fill:#fff;fill-rule:evenodd"/></svg>